<svg id="logo-icon" xmlns="http://www.w3.org/2000/svg" width="350" height="350" viewBox="0 0 350 350">
  <rect id="background-border" width="350" height="350" rx="60" fill="#002337"/>
  <path id="logo" d="M739.639,167.874a140,140,0,1,1,140,140h0a140,140,0,0,1-140-140Zm24,0a115.95,115.95,0,0,0,182.785,94.8L864.635,180.89l.006-.006-13-13.005,50-50H939.83l-50.008,50.008,76.734,76.738A115.908,115.908,0,0,0,934.821,65.86l-102,102.006,50.009,50.006H844.645l-50-50,13-13-.006,0L907.3,55.21A116.034,116.034,0,0,0,763.639,167.874Z" transform="translate(-704.639 7.126)" fill="#fff"/>
</svg>
